<svg id="Layer_1" data-name="Layer 1" xmlns="http://www.w3.org/2000/svg" xmlns:xlink="http://www.w3.org/1999/xlink" viewBox="0 0 116.05 200"><defs><style>.cls-1{fill:none;}.cls-2{fill:#411f1f;}.cls-2,.cls-3{fill-rule:evenodd;}.cls-3{fill:#c2ca7e;}.cls-4{clip-path:url(#clip-path);}.cls-5{fill:url(#linear-gradient);}.cls-6{clip-path:url(#clip-path-2);}.cls-7{fill:url(#linear-gradient-2);}.cls-8{fill:#f3e40a;}.cls-9{fill:#fff059;}.cls-10{clip-path:url(#clip-path-3);}.cls-11{fill:url(#linear-gradient-3);}.cls-12{clip-path:url(#clip-path-4);}.cls-13{fill:url(#linear-gradient-4);}.cls-14{clip-path:url(#clip-path-5);}.cls-15{fill:url(#linear-gradient-5);}.cls-16{clip-path:url(#clip-path-6);}.cls-17{fill:url(#linear-gradient-6);}.cls-18{clip-path:url(#clip-path-7);}.cls-19{fill:url(#linear-gradient-7);}.cls-20{clip-path:url(#clip-path-8);}.cls-21{fill:url(#linear-gradient-8);}.cls-22{clip-path:url(#clip-path-9);}.cls-23{fill:url(#linear-gradient-9);}.cls-24{clip-path:url(#clip-path-10);}.cls-25{fill:url(#linear-gradient-10);}.cls-26{clip-path:url(#clip-path-11);}.cls-27{fill:url(#linear-gradient-11);}</style><clipPath id="clip-path"><path class="cls-1" d="M71.16,22.72a.3.3,0,0,0-.08-.2.52.52,0,0,0,.08.2"/></clipPath><linearGradient id="linear-gradient" x1="971.54" y1="3092.86" x2="972.62" y2="3092.86" gradientTransform="matrix(0, 0.18, 0.18, 0, -475.42, -149.16)" gradientUnits="userSpaceOnUse"><stop offset="0" stop-color="#1e5732"/><stop offset="0.8" stop-color="#152c1b"/><stop offset="1" stop-color="#132015"/></linearGradient><clipPath id="clip-path-2"><path class="cls-1" d="M19.71,12.53a2.48,2.48,0,0,0-1,.28c-.06.11.2.28.14.41a1.33,1.33,0,0,1-1.08.36c.07.19.27.34,0,.5a.72.72,0,0,1-.42.08c-.2,0-.38,0-.41.18h-.21a.76.76,0,0,0-.2.5h-.34c-.29,0-.43,0-.6.26-.37.63.74,1.29-.76,1.53a4,4,0,0,0-1.22.22c-.14.08-.55.71-.25.74-1.42-.15-1.81.19-2.09,1.08.16.06.27.13.44.18-1.29-.07-2.67.57-2.33,1.45-1,0-1.69-.16-2.15.17V22a2.08,2.08,0,0,0,.84.53,3,3,0,0,1-.84.31v108c0,46.11,50.74,61,50.74,61s50.75-14.93,50.75-61V20.71l-.26,0h.26v-.91c-.41-.36-1.06-.9-1.06-.9s-.23,0-.36,0a2,2,0,0,0-.34,0,1.68,1.68,0,0,1-.06-.37l-.41,0c-.3-.77-2.27-.9-3.37-1,0,.24-.24.36-.25.59-.86,0-1.83,0-1.64.68-.47.11-.74.32-.73.61a2,2,0,0,0-.35.22c-.18-.39-.1-.17-.48-.37.11-.71-.85-1-.52-1.73a10.87,10.87,0,0,0-1.81-.08l0,.21c-.79,0-3.41.2-1.7.85,0,.05-.23.11-.29.15s.18.18.17.23a3.18,3.18,0,0,0-1.24.6c-.61.35-1.57.94-2.27,1.4l.25.2c-.83.17-1.26.58-1.11,1.07.09.33.6.44.47.76s-1.1.69-1.35.9c-.8-.44-2.45-1.34-3.55-1.22.07.08.23.31.16.25a4.12,4.12,0,0,0-3,1.38l.29.12a41.68,41.68,0,0,1-4.48.44,1.56,1.56,0,0,1,.58.85c-.58.25-1.29.49-1.45,0a1.84,1.84,0,0,0-.41,0c0-.73-.14-1.44-1.66-1.39a4.47,4.47,0,0,0-2.54-1.56c-.33-.09-3.2-.62-3.11,0-.33-.37-1.51-.44-2.16-.54.39-.76-1.4-.64-2.23-.61.75-.61-3-2.47-3-1.16-1,0-3.63-.34-4.18.38a3.84,3.84,0,0,1,.35.18c-.21,0-.6.21-.82.23a3.85,3.85,0,0,1,1.6.76,12.06,12.06,0,0,1-2.5.3c.2.12.31.33.71.42a2.09,2.09,0,0,0-.32.08,2.47,2.47,0,0,1,.62.17c0,.06-.31.36-.31.36-1.41.15-1.35.71-2.4,1.06s-3.38.05-4.28.68c.05.11,0,.23-.31.37a.85.85,0,0,1,.31-.37c-.1-.23-.76-.38-1.31-.43,0,.25-.21.45-.26.69a1.28,1.28,0,0,0-1,.45,8.91,8.91,0,0,0-2.11-1.28,2,2,0,0,0-.21.81c-.49-.92-.62-2.67-2.36-3a4.88,4.88,0,0,1-.81,0,3.49,3.49,0,0,1,.81,0c2-.14-.56-2.55-2-2.14a1,1,0,0,1-.72.8,1.06,1.06,0,0,1,.72-.8.9.9,0,0,0-.85-1.19c-.44,0-1,.74-1.64.84a3.62,3.62,0,0,1-.87,0,2.47,2.47,0,0,0-1.17.1c-.15.46-.08,1.07-.89,1.21s-2.75-1.47-3-2a4.69,4.69,0,0,0-2.8,0c.11-.05.27-.15.38-.21-.9.19-2.35,1-3.14.3a9.55,9.55,0,0,0,1.63-.23,3.8,3.8,0,0,1-.75-.66c-.2-.22,0-.37-.48-.57,0-.22.12-.47.16-.7s.42-.08.41-.39a8,8,0,0,0-.72-1c-.88-1.34-2.31-1.14-2.45.3a3.35,3.35,0,0,0-1.8-.22c-.24,0-.49,0-.71,0,.51-.51-.17-.59-.59-.9-.19-.13,0-.3-.2-.42a1.32,1.32,0,0,0-1,.12c-.29.16-.69,1-1.11.92-.16,0-.27-.42-.25-.48.07-.21.23-.24.55-.31a7.36,7.36,0,0,1-1.46-.49c.35-.17,1.41-.38,1.51-.66.05-.12-.55-.73-.71-.81a1.82,1.82,0,0,0-.74-.12,3.68,3.68,0,0,0-.49,0"/></clipPath><linearGradient id="linear-gradient-2" x1="-551.38" y1="504.75" x2="-550.3" y2="504.75" gradientTransform="matrix(0, 165.83, 165.83, 0, -83643.26, 91445.41)" xlink:href="#linear-gradient"/><clipPath id="clip-path-3"><path class="cls-1" d="M47.77,112.55v5.15c-.38.27-3.43,2.34-13.66,10.59C24.5,136,21.42,149.58,20.78,153c0,.09.09.17.13.25,4-1,13.49-3.91,20.5-11.28,7.5-7.87,13.75-15.23,15.7-17.55V111.13a28.47,28.47,0,0,0-4-14.24c-3.38,5.26-5.36,10.85-5.36,15.66"/></clipPath><linearGradient id="linear-gradient-3" x1="-550.16" y1="497.27" x2="-549.08" y2="497.27" gradientTransform="translate(47899.43 53022.38) rotate(90) scale(96.25)" gradientUnits="userSpaceOnUse"><stop offset="0" stop-color="#f89d35"/><stop offset="0.81" stop-color="#faf5b6"/><stop offset="0.85" stop-color="#f9f195"/><stop offset="0.89" stop-color="#f8ed73"/><stop offset="0.93" stop-color="#f8ea5b"/><stop offset="0.97" stop-color="#f7e94c"/><stop offset="1" stop-color="#f7e847"/></linearGradient><clipPath id="clip-path-4"><path class="cls-1" d="M84,119.51V132h0v15.76c0,7.62,1.18,13.64,2.4,16.54a42,42,0,0,0,13.62-31v0h0v-43C93,93.8,84,103,84,119.51"/></clipPath><linearGradient id="linear-gradient-4" x1="-550.16" y1="497.23" x2="-549.08" y2="497.23" gradientTransform="translate(47948.51 53022.38) rotate(90) scale(96.25)" xlink:href="#linear-gradient-3"/><clipPath id="clip-path-5"><path class="cls-1" d="M60.13,88.48c-.72.68-1.41,1.38-2.08,2.1a39.3,39.3,0,0,1,4.64,9.19A51.58,51.58,0,0,1,69.26,90a43.46,43.46,0,0,0-4.21-5.54,47.54,47.54,0,0,0-4.92,4.06"/></clipPath><linearGradient id="linear-gradient-5" x1="-550.16" y1="497.25" x2="-549.08" y2="497.25" gradientTransform="translate(47922.27 53022.38) rotate(90) scale(96.25)" xlink:href="#linear-gradient-3"/><clipPath id="clip-path-6"><path class="cls-1" d="M78.56,91.2a53.91,53.91,0,0,1,3,7.48c4.77-8.83,12.14-14.33,18.52-16.48v-.07A36.16,36.16,0,0,0,78.56,91.2"/></clipPath><linearGradient id="linear-gradient-6" x1="-550.16" y1="497.23" x2="-549.08" y2="497.23" gradientTransform="translate(47945.98 53022.38) rotate(90) scale(96.25)" xlink:href="#linear-gradient-3"/><clipPath id="clip-path-7"><path class="cls-1" d="M34.3,84.9a45.81,45.81,0,0,1,9.79,12.61,47.57,47.57,0,0,1,4.27-7.06c-.63-.67-1.28-1.34-2-2A47.32,47.32,0,0,0,19.43,76.4,38.64,38.64,0,0,1,34.3,84.9"/></clipPath><linearGradient id="linear-gradient-7" x1="-550.16" y1="497.27" x2="-549.08" y2="497.27" gradientTransform="translate(47894.76 53022.38) rotate(90) scale(96.25)" xlink:href="#linear-gradient-3"/><clipPath id="clip-path-8"><path class="cls-1" d="M95.36,75a52.82,52.82,0,0,0-23.78,5.52,47.72,47.72,0,0,1,3.13,4.1,43.37,43.37,0,0,1,22-9.62Z"/></clipPath><linearGradient id="linear-gradient-8" x1="-550.16" y1="497.23" x2="-549.08" y2="497.23" gradientTransform="translate(47941.21 53022.38) rotate(90) scale(96.25)" xlink:href="#linear-gradient-3"/><clipPath id="clip-path-9"><path class="cls-1" d="M15.89,128.53a45,45,0,0,0,13-4.71c7.79-4.18,11-5.87,11.45-6.12h0v-7.08c0-5.08-3.78-13.63-11-20.13a30.66,30.66,0,0,0-13.38-7.28Z"/></clipPath><linearGradient id="linear-gradient-9" x1="-550.16" y1="497.28" x2="-549.08" y2="497.28" gradientTransform="translate(47889.39 53022.38) rotate(90) scale(96.25)" xlink:href="#linear-gradient-3"/><clipPath id="clip-path-10"><path class="cls-1" d="M73,97.37c-6.15,8.42-8.38,17.94-8.38,22.28v5.2h0c-.41.65-4.85,7.69-13.71,21.85-8,12.74-4.54,24.28-3.38,27.37l.09,0h0a28.71,28.71,0,0,0,19.84-17.36c4.63-11.56,7.71-20.59,9.09-24.79V115.32a47.92,47.92,0,0,0-3.46-18Z"/></clipPath><linearGradient id="linear-gradient-10" x1="-550.16" y1="497.27" x2="-549.08" y2="497.27" gradientTransform="translate(47919.95 53022.38) rotate(90) scale(96.25)" xlink:href="#linear-gradient-3"/><clipPath id="clip-path-11"><path class="cls-1" d="M30.61,71.08A53,53,0,0,1,51.53,83c.59.55,1.16,1.12,1.71,1.69a55.19,55.19,0,0,1,6.17-5.45A41.15,41.15,0,0,0,34.31,71c-1.33,0-2.56,0-3.7.11"/></clipPath><linearGradient id="linear-gradient-11" x1="-550.16" y1="497.26" x2="-549.08" y2="497.26" gradientTransform="translate(47905.04 53022.37) rotate(90) scale(96.25)" xlink:href="#linear-gradient-3"/></defs><title>harpers-mill-logo</title><path class="cls-2" d="M115.69,129c0-13.32,0-69.39,0-70.13v-42A16.35,16.35,0,0,0,99.4.53H16.65A16.35,16.35,0,0,0,.33,16.86V131.65a60.8,60.8,0,0,0,10.54,34.84A73.36,73.36,0,0,0,26.12,182.7a100.74,100.74,0,0,0,24.17,14l3.76,1.45,4,1.31a95.9,95.9,0,0,0,17.33-7.26A95.18,95.18,0,0,0,84,187a81.8,81.8,0,0,0,11.49-9.17,64.51,64.51,0,0,0,12.77-16.42,58.29,58.29,0,0,0,7.44-29.77l0-2.65Z"/><path class="cls-3" d="M54.85,195.92,58,197a95.2,95.2,0,0,0,16.2-6.86A98.19,98.19,0,0,0,82.7,185a83.4,83.4,0,0,0,11.18-8.91,63,63,0,0,0,12.32-15.84,55.31,55.31,0,0,0,7.12-25.94l0,0,0-5.36c.07-23.37,0-46.75,0-70.12v-42A14,14,0,0,0,99.4,2.91H16.65a14,14,0,0,0-13.95,14V131.65a59.43,59.43,0,0,0,10.13,33.5,71.3,71.3,0,0,0,14.75,15.68A95,95,0,0,0,51.14,194.5Z"/><g class="cls-4"><rect class="cls-5" x="71.08" y="22.52" width="0.09" height="0.19"/></g><g class="cls-6"><rect class="cls-7" x="7.28" y="12.5" width="101.49" height="179.38"/></g><path class="cls-8" d="M33.27,55.11a2.8,2.8,0,0,1-1.19-.45c-1-.73-1-1.76-1-3V38.32c0-1.29,0-2.11.79-2.77A2.75,2.75,0,0,1,32.93,35c.42-.12.58-.18.58-.37s-.13-.23-.32-.23l-.31,0a23.86,23.86,0,0,1-2.79.16l-2.18-.11-1.23-.07c-.47,0-.47.06-.47.26s.1.19.54.28a3,3,0,0,1,1.23.47c.95.69,1,1.56,1,2.9V43c0,.81-.24.94-1,.94H17.81c-.75,0-1-.12-1-.94V38.32c0-1.29,0-2.11.8-2.77A2.92,2.92,0,0,1,18.73,35c.44-.13.6-.2.6-.4s-.13-.23-.32-.23l-.3,0a27.38,27.38,0,0,1-3.08.16,21,21,0,0,1-2.27-.13l-.86-.06c-.46,0-.47.09-.47.3s.08.18.52.26a3,3,0,0,1,1.25.46c.95.69,1,1.55,1,2.9V51.61c0,1.26-.05,2.08-.89,2.83a3.46,3.46,0,0,1-1.06.59c-.4.15-.54.22-.54.41s.18.23.33.23l.35,0a26.51,26.51,0,0,1,2.84-.15l1.85.1,1.46.08c.48,0,.48-.06.48-.26s-.08-.22-.55-.3a2.89,2.89,0,0,1-1.2-.45c-1-.73-1.05-1.76-1.05-3v-6c0-.68.34-.81,1-.81H28c.53,0,1,.06,1,.81v6c0,1.26-.05,2.08-.89,2.83a3.46,3.46,0,0,1-1.06.59c-.4.15-.54.22-.54.41s0,.23.29.23l.36,0A27.42,27.42,0,0,1,30,55.49l1.85.1,1.46.08c.48,0,.48-.07.48-.26s-.08-.22-.55-.3"/><path class="cls-8" d="M102.11,45c-1.07-1-2.83-1.53-4.88-2.17-2.87-.92-4.63-1.61-4.63-4.21,0-2.31,2-4,4.71-4a5.34,5.34,0,0,1,5,2.93,5.72,5.72,0,0,1,.56,1.17c.17.48.24.6.44.6s.2,0,.2-.26l0-.38L103,35c0-.19-.07-.28-.05-.28l-.19.1a1.2,1.2,0,0,1-.64.24,2.37,2.37,0,0,1-.7-.22,9,9,0,0,0-3.5-.73c-3.94,0-6.59,2.19-6.59,5.45s1.57,4.65,6.2,6c3.54,1,5.22,2,5.22,4.77s-2.13,4.83-5.29,4.83A6,6,0,0,1,92,52l-.59-1.44c-.22-.58-.32-.83-.51-.83s-.2,0-.2.32l0,.51L91.4,54c.19,1,2.2,2,5.24,2,4.55,0,7.38-2.39,7.38-6.25A5.85,5.85,0,0,0,102.11,45"/><path class="cls-8" d="M39.79,55.31c-.16,0-.22.92-.28,2.74l-.1,2.64c0,.66,0,1.23,0,1.73,0,1,.06,1.58.74,2,.43.28,1,.14,1,.52,0,.16-.16.26-.42.26s-1-.12-2.16-.12a10.54,10.54,0,0,0-1.25.12.33.33,0,0,1-.32-.3.28.28,0,0,1,.16-.26c.52-.18.91-.26,1.09-.87a44.49,44.49,0,0,0,.6-8.46c0-1.64-.26-2.72-1-3.27-.36-.28-.86-.16-.86-.52,0-.2.14-.27.4-.27s.62,0,1.13,0l.44,0c.69,0,.71.08.91.52L44.73,62.1c.08.18.18.26.26.26s.18-.1.28-.3l5.14-10.38c.13-.26.13-.34.49-.34h.42c.5,0,.87-.07,1.09-.07s.42.09.42.25c0,.4-.48.22-.88.5s-.55.71-.55,1.35v.26l.2,8.89c0,1.15,0,1.58.71,1.94.46.22.83.14.83.44s-.15.27-.45.27c-.54,0-1.23-.07-2.06-.07a13.73,13.73,0,0,0-1.45.12c-.2,0-.3-.06-.3-.22s.32-.32.65-.48c.5-.24.58-.67.58-1.37,0-.24,0-.51,0-.81L50,56.05c0-.64-.08-1-.24-1s-.32.24-.53.68L45,64.3c-.14.3-.26.46-.44.46s-.3-.14-.43-.46L40,55.57c-.08-.18-.18-.26-.24-.26"/><path class="cls-8" d="M59.4,53.88c0-.85,0-1.36-.6-1.78s-1.13-.16-1.13-.6c0-.2.12-.25.4-.25s1,.11,2,.11c1.35,0,2.07-.11,2.21-.11s.31.11.31.25c0,.4-.67.28-1.15.68s-.45.89-.45,1.7V62.5c0,.89.06,1.44.61,1.86s1.17.16,1.17.58c0,.23-.12.28-.41.28-.64,0-1.33-.12-2.15-.12a20,20,0,0,0-2.08.12c-.2,0-.32-.11-.32-.26,0-.38.58-.3,1.07-.74s.54-.95.54-1.74Z"/><path class="cls-8" d="M69.8,53.88c0-.85,0-1.33-.57-1.78s-1-.18-1-.56.1-.29.38-.29,1,.11,1.88.11a20.27,20.27,0,0,0,2-.11c.18,0,.27.09.27.25,0,.38-.59.3-1,.64s-.46.93-.46,1.74v9.23c0,1,.36,1.25,1.55,1.25A8.47,8.47,0,0,0,77,63.43c.77-.5.93-1.13,1.21-1.13.1,0,.18.12.18.34a3.3,3.3,0,0,1-.68,1.6,2.46,2.46,0,0,1-2.2,1c-.73,0-2-.12-3.67-.12-2.07,0-3.09.12-3.26.12s-.19-.12-.19-.24c0-.42.49-.32.91-.76a2.21,2.21,0,0,0,.47-1.74Z"/><path class="cls-8" d="M82.64,53.88c0-.85,0-1.33-.57-1.78S81,51.92,81,51.54s.1-.29.38-.29,1,.11,1.88.11a20,20,0,0,0,2-.11c.18,0,.28.09.28.25,0,.38-.6.3-1,.64s-.46.93-.46,1.74v9.23c0,1,.36,1.25,1.55,1.25a8.45,8.45,0,0,0,4.14-.93c.78-.5.94-1.13,1.21-1.13.1,0,.18.12.18.34a3.36,3.36,0,0,1-.67,1.6,2.47,2.47,0,0,1-2.2,1c-.74,0-2-.12-3.68-.12-2.06,0-3.09.12-3.25.12a.24.24,0,0,1-.2-.24c0-.42.5-.32.92-.76a2.25,2.25,0,0,0,.47-1.74Z"/><path class="cls-9" d="M55.3,57a.73.73,0,1,0,.73.72A.73.73,0,0,0,55.3,57"/><path class="cls-9" d="M65.56,57a.73.73,0,1,0,.73.72.73.73,0,0,0-.73-.72"/><path class="cls-9" d="M77,57a.73.73,0,1,0,.72.72A.72.72,0,0,0,77,57"/><path class="cls-8" d="M39.53,34.15c.1-.2.16-.28.32-.28s.17.12.25.31l4.51,11.47c.37,1,.73,1.61,1.37,1.87.45.2.91.08.91.42,0,.18-.08.24-.26.24s-1.05-.13-2.28-.13a14.43,14.43,0,0,0-1.84.14.26.26,0,0,1-.22-.24c0-.23.18-.25.45-.35.44-.16.66-.34.66-.7a2.08,2.08,0,0,0-.2-.75l-1-2.68c-.18-.45-.34-.61-.86-.61H36.85c-.54,0-.67.25-.89.73l-1,2.1a2.76,2.76,0,0,0-.29,1,1,1,0,0,0,.73.88c.34.14.71,0,.71.36,0,.18-.09.24-.31.24-.38,0-1.15-.13-2.26-.13a9.68,9.68,0,0,0-1.11.13.27.27,0,0,1-.24-.26c0-.28.45-.26.79-.52a4,4,0,0,0,1-1.51Zm1.53,7.91c.24,0,.37-.08.37-.2a1.21,1.21,0,0,0-.1-.33l-1.8-4.65c-.06-.16-.16-.23-.24-.23s-.18.05-.26.21l-2.14,4.59a.7.7,0,0,0-.12.36c0,.17.16.25.5.25Z"/><path class="cls-8" d="M49.23,36.88c0-.85,0-1.37-.57-1.78s-1.1-.18-1.1-.56.1-.28.38-.28,1,.1,1.93.1c.61,0,1.62-.1,3-.1,2.72,0,4.23,1.31,4.23,3.36a3.76,3.76,0,0,1-2.48,3.45l2.28,3.47c1,1.45,1.59,2.5,2.4,2.92.48.24.9.12.9.4s-.34.35-1.1.35c-1.58,0-2.34-.93-3.35-2.54L53.68,42.4c-.5-.77-1-.82-2-.82-.69,0-.95.08-.95.7V45.5c0,.89.06,1.44.67,1.86s1.29.16,1.29.58c0,.21-.1.27-.37.27s-1.15-.12-2.23-.12a20.66,20.66,0,0,0-2.2.12c-.2,0-.32-.09-.32-.25,0-.38.6-.3,1.1-.74s.51-.95.51-1.74Zm1.55,3.59c0,.44.32.46,1.09.46h.2c2.42,0,3.53-.77,3.53-2.78s-1.35-3.21-3.75-3.21c-.79,0-1.07.1-1.07.71Z"/><path class="cls-8" d="M62.05,36.88c0-.83,0-1.37-.55-1.78s-1.08-.18-1.08-.56c0-.22.12-.28.38-.28s.91.1,1.86.1,1.71-.1,2.7-.1c3.06,0,4.8,1.47,4.8,3.85a4,4,0,0,1-4.28,3.81c-1.21,0-1.87-.23-1.87-.47a.22.22,0,0,1,.22-.22,7.13,7.13,0,0,0,1.09.14c2.21,0,3.38-1,3.38-2.78,0-2.14-1.63-3.63-4.17-3.63-.67,0-1,.14-1,.71v9.82c0,1.06,0,1.55.71,1.93s1.21.12,1.21.52c0,.23-.12.27-.41.27-.82,0-1.55-.12-2.27-.12a20.8,20.8,0,0,0-2.08.12c-.2,0-.3-.1-.3-.26,0-.37.58-.29,1.07-.73s.54-.95.54-1.75Z"/><path class="cls-8" d="M71.89,36.88c0-.85,0-1.37-.58-1.78s-1.11-.18-1.11-.56.1-.3.38-.3,1.37.12,3.65.12c2.88,0,4.46-.18,4.78-.18s.4.06.4.4c0,.08,0,.16,0,.26l-.14,1.63c0,.27-.06.41-.24.41s-.26-.12-.26-.35,0-.16,0-.22c0-1.05-.73-1.31-2.42-1.31H75c-1.13,0-1.53.08-1.53.79v4.09c0,.63,0,.75.68.75h1.63c1,0,1.6-.07,2-.63.28-.4.2-.91.52-.91.14,0,.23.14.23.43s-.07.88-.07,1.83a13.43,13.43,0,0,0,.09,1.37c0,.25-.13.41-.27.41-.38,0-.24-.49-.42-1s-.85-.75-1.91-.75H74c-.52,0-.6.12-.6.65v4c0,1,.36,1.25,1.63,1.25a8.19,8.19,0,0,0,4.09-1c.75-.48.89-1.11,1.17-1.11.1,0,.18.12.18.33a3,3,0,0,1-.64,1.53,2.39,2.39,0,0,1-2.14,1c-.65,0-1.83-.12-3.49-.12-2.21,0-3.34.14-3.51.14A.26.26,0,0,1,70.5,48c0-.42.51-.32.93-.76a2.22,2.22,0,0,0,.46-1.75Z"/><path class="cls-8" d="M82.48,36.88c0-.85,0-1.37-.57-1.78s-1.1-.18-1.1-.56.11-.28.38-.28,1,.1,1.93.1c.61,0,1.62-.1,3-.1,2.71,0,4.22,1.31,4.22,3.36a3.76,3.76,0,0,1-2.48,3.45l2.28,3.47c1,1.45,1.59,2.5,2.4,2.92.48.24.9.12.9.4s-.34.35-1.09.35c-1.59,0-2.35-.93-3.36-2.54L86.93,42.4c-.5-.77-1-.82-2-.82-.69,0-1,.08-1,.7V45.5c0,.89.06,1.44.68,1.86s1.28.16,1.28.58c0,.21-.09.27-.37.27s-1.15-.12-2.22-.12a20.73,20.73,0,0,0-2.21.12c-.19,0-.31-.09-.31-.25,0-.38.59-.3,1.09-.74s.51-.95.51-1.74ZM84,40.47c0,.44.32.46,1.09.46h.2c2.42,0,3.53-.77,3.53-2.78s-1.35-3.21-3.75-3.21c-.79,0-1.07.1-1.07.71Z"/><path class="cls-8" d="M89.78,49.75a.25.25,0,0,1-.25.25H32.29a.25.25,0,1,1,0-.49H89.53a.25.25,0,0,1,.25.24"/><g class="cls-10"><rect class="cls-11" x="20.78" y="96.89" width="36.33" height="56.36"/></g><g class="cls-12"><rect class="cls-13" x="84.03" y="90.31" width="16.03" height="73.99"/></g><g class="cls-14"><rect class="cls-15" x="58.05" y="84.42" width="11.21" height="15.34"/></g><g class="cls-16"><rect class="cls-17" x="78.56" y="82.13" width="21.49" height="16.55"/></g><g class="cls-18"><rect class="cls-19" x="19.43" y="76.4" width="28.92" height="21.11"/></g><g class="cls-20"><rect class="cls-21" x="71.58" y="74.95" width="25.13" height="9.61"/></g><g class="cls-22"><rect class="cls-23" x="15.89" y="83.21" width="24.41" height="45.33"/></g><g class="cls-24"><rect class="cls-25" x="42.91" y="97.31" width="33.6" height="76.78"/></g><g class="cls-26"><rect class="cls-27" x="30.61" y="70.97" width="28.8" height="13.7"/></g></svg>