<svg id="Layer_1" data-name="Layer 1" xmlns="http://www.w3.org/2000/svg" viewBox="0 0 248 144"><defs><style>.cls-1{fill:#fff;}.cls-2{fill:#ffe88e;}</style></defs><title>vericor-display-logo</title><path class="cls-1" d="M81.69,127v16h-3.3v-7.21H71.31v7.21H68V127h3.29v5.73h7.08V127Z"/><path class="cls-1" d="M98.91,127a8,8,0,1,1-8,8A7.86,7.86,0,0,1,98.91,127Zm0,13c2.94,0,4.61-2.29,4.61-5,0-3-2-5-4.61-5-2.92,0-4.62,2.29-4.62,5A4.68,4.68,0,0,0,98.91,140Z"/><path class="cls-1" d="M133.18,127v16h-3.29v-10l-5.26,6.1-5.26-6.1v10h-3.29V127h1.65l6.9,8,6.9-8Z"/><path class="cls-1" d="M154,127v3.09h-7.8v2.64H152v3.08h-5.81V140H154v3.09h-11.1V127Z"/><path class="cls-1" d="M164.19,138a6.71,6.71,0,0,0,4.64,2c1.61,0,2.85-.73,2.85-1.82,0-2.86-9.34-.6-9.34-6.38,0-3.19,2.58-4.77,5.62-4.77a10.16,10.16,0,0,1,5.81,1.9l-1.87,2.33A7.08,7.08,0,0,0,168,130c-1.31,0-2.37.44-2.37,1.5,0,3,9.34.39,9.34,6.62,0,2.81-2.65,4.88-6,4.88a10.27,10.27,0,0,1-6.74-2.78Z"/><path class="cls-2" d="M6.34,75.1c-1.25-3.82-1.75-4.43-3.28-5a3.78,3.78,0,0,0-1-.29c-.49-.17-.72-.44-.72-.75s.36-.51.94-.45c2.43.26,5,.71,6.84.89,1.57.16,4,.23,7.51.56.67.06,1,.33,1,.67s-.27.54-.67.51a6.49,6.49,0,0,0-1.22.06c-1.17.12-1.35.75-1.35,1.32a18.23,18.23,0,0,0,1,4.46c2.11,7.18,4.95,15.65,7,22.1,1.85-5.28,6.53-18.62,8-23.52a5.47,5.47,0,0,0,.36-1.76,1.21,1.21,0,0,0-1.08-1.32,11.9,11.9,0,0,0-1.8-.42c-.59-.1-.81-.28-.81-.61s.22-.53,1-.46c3,.25,5.17.59,5.85.64s3.6.12,5,.23c.68.05,1,.23,1,.59s-.22.5-.81.46a4.28,4.28,0,0,0-2,.33c-1,.47-1.58,1.52-2.84,4.59-1.8,4.48-3.42,8.75-6,15.68-2.88,7.76-4.82,13-6,16-1.3,3.4-1.75,4.19-2.34,4.25s-1-.7-1.84-3.24C14.2,99.36,10.27,87.56,6.34,75.1Z"/><path class="cls-2" d="M47,87.24C47,79,47,78,46.87,76.33s-.5-2.36-1.62-2.74c-.41-.13-1-.17-1.49-.26S43,73,43,72.71s.27-.44,1-.39c2.57.18,4.73.48,6.71.61,1,.07,12,.67,12.72.7a13.55,13.55,0,0,0,2.43-.07,3,3,0,0,1,.72-.15c.23,0,.28.2.28.44s-.1.71-.23,2.09c-.14.94-.23,2.61-.36,5.08,0,.38-.18.66-.45.66s-.41-.25-.45-.69a6.11,6.11,0,0,0-.23-1.68c-.22-1.11-.81-1.75-3-2-1.48-.2-5.41-.48-6.76-.55-.27,0-.36.13-.36.47V88.05c0,.34.05.59.36.59,1.26.07,4.92,0,6.54,0,2.21-.08,2.8-.22,3.29-1.07.27-.43.41-.62.63-.61s.27.29.27.57c0,.48-.22,2.19-.36,4,0,1.1,0,3.44,0,4s-.14.91-.41.91-.4-.33-.49-.76-.09-.72-.14-1.1c-.18-1.38-.81-2.2-3-2.34-1.26-.09-5-.19-6.36-.19-.22,0-.27.25-.27.65v3.4c0,1.68,0,4.59,0,6.47.05,3.45.68,4.2,5.68,4a12.37,12.37,0,0,0,4.2-.76c1.26-.58,1.8-1.65,2.21-3.85q.14-.85.54-.87c.36,0,.4.47.4,1a41.19,41.19,0,0,1-.72,6.39c-.31,1.25-.63,1.31-2.3,1.4-6.22.33-9.6.25-14.34.54-2.11.14-4,.42-6.49.59-.81.06-1.08-.07-1.08-.43s.23-.53.9-.58a9.89,9.89,0,0,0,1.36-.29c1.26-.29,1.44-2.23,1.53-5.43.09-2,.13-5,.13-8.17Z"/><path class="cls-2" d="M77.16,87.62c0-7.18-.09-8.11-.13-9.59-.1-1.9-.64-2.53-1.72-2.8a15.8,15.8,0,0,0-1.8-.26c-.55-.07-.82-.27-.82-.55s.32-.41,1-.38c1.94.09,6.27.4,6.9.43.86,0,5.19,0,7.26.12,4.25.13,7.23.62,9.21,1.77a7.73,7.73,0,0,1,4.11,6.87c0,3.73-2.17,6.55-6,8.92a135,135,0,0,0,8.8,11.7c2.4,2.58,3.48,3.31,4.74,3.47.5.08.77.07,1.13.11s.77.17.77.43-.45.45-.9.45l-4.07.07c-4.65.08-6.63-.31-8.21-1.31-1.45-.81-2.89-2.7-4.65-5.5-2.08-3.37-3.12-5.22-3.93-6.43a.68.68,0,0,0-.54-.27l-3,0a.31.31,0,0,0-.36.36v2.32a67.73,67.73,0,0,0,.23,7.65c.09,1.18.4,2.17,1.76,2.45a11.64,11.64,0,0,0,2,.21c.72,0,.81.2.81.47s-.32.41-1,.43c-3,.1-7.94.14-8.26.16-.54,0-4.91.33-6.45.4-.67,0-.9-.1-.9-.42s.32-.49.81-.51,1-.13,1.54-.25c.9-.27,1.26-1.11,1.39-2.69.19-2,.23-5.2.23-9.69Zm7.76,3.12a.68.68,0,0,0,.41.69A8.12,8.12,0,0,0,88.8,92a4.63,4.63,0,0,0,2.85-.72c.94-.72,1.76-2.65,1.76-5.65,0-6.36-4.07-8.12-6.41-8.19a6,6,0,0,0-1.81.13c-.18.09-.27.13-.27.49Z"/><path class="cls-2" d="M117.1,87.85c0-6.78,0-8-.13-9.45-.09-1.22-.59-2-1.58-2.2A7.25,7.25,0,0,0,114,76c-.54,0-.85-.19-.85-.5s.22-.39,1-.38c1.81,0,6.23.18,6.59.18s5.74-.12,7.36-.13c.77,0,1,.17,1,.43s-.4.44-.85.44-.73,0-1.31.14c-1.18.22-1.63.78-1.72,2.36-.13,1.39-.13,2.53-.13,9.3v7.68c0,3.45,0,7.51.22,9.35.09,1.13.36,1.92,1.72,2.23a16.65,16.65,0,0,0,2,.22c.77,0,.95.18.95.44s-.22.44-.95.43c-3.07,0-7.9-.13-8.3-.12-.23,0-5,.15-6.51.17-.72,0-1.08-.08-1.08-.43s.36-.44.9-.44.91-.1,1.4-.19c.95-.14,1.27-1.1,1.4-2.37.18-1.84.27-5,.27-9.28Z"/><path class="cls-2" d="M138.78,104.07c-4.42-3.72-5.68-8.21-5.69-12.89A16.08,16.08,0,0,1,138.69,79c3.89-3.24,8.4-4.63,14.94-4.8a40.65,40.65,0,0,1,6.41.36,38.91,38.91,0,0,0,4.47.45c.5,0,.5.3.5.57s-.14,1.46-.23,3,0,4.18-.13,5.32c-.05.68-.14,1.09-.54,1.1s-.5-.31-.55-1a6.58,6.58,0,0,0-1.71-4.4c-1.58-1.64-4.74-2.72-9.12-2.63a10,10,0,0,0-6.63,2.24c-2.76,2.38-4,6.47-4,11.18,0,9,5.06,15.17,12.64,15.35,3.7.07,6-.17,7.77-2.12a7,7,0,0,0,1.49-3c.22-1,.36-1.27.72-1.26s.36.46.36.82a63.67,63.67,0,0,1-1,6.89,1.42,1.42,0,0,1-1.18,1.28,23.86,23.86,0,0,1-7.76.8C149.3,109.06,143.52,108,138.78,104.07Z"/><path class="cls-2" d="M168.71,91.84c0-9.15,6-18.26,19.31-19.1,11.45-.79,18.62,7.4,18.62,18,0,12.14-7.12,20.74-18.94,19.93C174.4,109.8,168.71,99.94,168.71,91.84ZM197.62,93c0-8.34-3.11-17.6-11.09-17.14-4.15.21-8.79,2.82-8.79,13.92,0,8.84,3.56,17.45,11.32,17.89C191.85,107.76,197.62,106.77,197.62,93Z"/><path class="cls-2" d="M213.39,87c0-8.24-.09-9.29-.13-11-.09-2.17-.63-2.82-1.71-3a15.82,15.82,0,0,0-1.8-.08c-.54,0-.81-.2-.81-.51s.31-.5,1-.55c1.93-.14,6.26-.33,6.89-.38.85-.07,5.18-.59,7.25-.78,4.23-.37,7.2-.15,9.18,1.12,2.15,1.3,4.09,4.15,4.09,8.62a14.33,14.33,0,0,1-6,11.8c2.75,5,6,11.41,8.77,15.8,2.38,3.7,3.46,4.86,4.72,5.22.5.17.77.2,1.13.3s.76.32.76.69c0,.55-.45.56-.9.52l-4-.43c-4.64-.48-6.62-1.26-8.19-2.73-1.44-1.22-2.88-3.82-4.63-7.48-2.07-4.41-3.11-6.7-3.92-8.23a.66.66,0,0,0-.54-.34l-3,0c-.23,0-.36.11-.36.44v2.79c0,4.33,0,6.9.22,9.22.09,1.43.41,2.66,1.76,3.16a10.19,10.19,0,0,0,2,.5c.72.12.81.35.81.69s-.32.47-1,.41c-3-.27-7.92-.84-8.24-.86-.54,0-4.91-.23-6.44-.35-.67-.05-.9-.22-.9-.59s.32-.5.81-.47,1,0,1.53-.1c.9-.19,1.26-1.12,1.4-2.92.18-2.22.22-5.93.22-11.09Zm7.75,3.52a.82.82,0,0,0,.4.82,6.85,6.85,0,0,0,3.47.72,3.84,3.84,0,0,0,2.84-.9c.94-.9,1.75-3.35,1.75-7.16,0-8.1-4-9.87-6.39-9.69a5.62,5.62,0,0,0-1.8.35c-.18.13-.27.19-.27.62Z"/><path class="cls-1" d="M121.64,30.72c-.17.36-.44.36-.61,0L108.31,4a1.23,1.23,0,0,0-1-.64h-1.84a.41.41,0,0,0-.39.64l16,33.47c.17.35.45.35.61,0l16-33.45a.41.41,0,0,0-.39-.64H135.4a1.22,1.22,0,0,0-1,.63Z"/><path class="cls-1" d="M121.83,45.73c-.28.57-.73.57-1,0L100,2a2,2,0,0,0-1.65-1h-3A.67.67,0,0,0,94.67,2l26.15,54.85c.28.58.72.58,1,0L148,2a.67.67,0,0,0-.65-1h-3a2,2,0,0,0-1.65,1Z"/><path class="cls-1" d="M121.61,16.27c-.15.32-.4.32-.55,0l-4.59-9.43a1.1,1.1,0,0,0-.91-.58h-1.68a.37.37,0,0,0-.36.58l7.53,15.61c.16.32.41.32.56,0l7.57-15.6a.37.37,0,0,0-.36-.58h-1.68a1.1,1.1,0,0,0-.91.58Z"/></svg>