<?xml version="1.0" encoding="utf-8"?>
<!-- Generator: Adobe Illustrator 22.1.0, SVG Export Plug-In . SVG Version: 6.00 Build 0)  -->
<svg version="1.1" id="Layer_1" xmlns="http://www.w3.org/2000/svg" xmlns:xlink="http://www.w3.org/1999/xlink" x="0px" y="0px"
	 viewBox="0 0 50 50" style="enable-background:new 0 0 50 50;" xml:space="preserve">
<style type="text/css">
	.st0{fill:#FFFFFF;}
</style>
<path class="st0" d="M25.3,26.4c-0.1,0.3-0.4,0.3-0.5,0L13.5,2.9c-0.1-0.3-0.5-0.6-0.9-0.6l-1.6,0c-0.3,0-0.5,0.3-0.3,0.6l14.1,29.5
	c0.1,0.3,0.4,0.3,0.5,0L39.3,2.9c0.1-0.3,0-0.6-0.3-0.6l-1.6,0c-0.3,0-0.7,0.3-0.9,0.6L25.3,26.4z"/>
<path class="st0" d="M25.4,39.6c-0.2,0.5-0.6,0.5-0.9,0L6.2,1.1C5.9,0.6,5.3,0.2,4.7,0.2L2,0.2c-0.6,0-0.8,0.4-0.6,0.9l23.1,48.4
	c0.2,0.5,0.6,0.5,0.9,0L48.5,1.1c0.2-0.5,0-0.9-0.6-0.9l-2.7,0c-0.6,0-1.2,0.4-1.5,0.9L25.4,39.6z"/>
<path class="st0" d="M25.2,13.7c-0.1,0.3-0.4,0.3-0.5,0l-4-8.3c-0.1-0.3-0.5-0.5-0.8-0.5l-1.5,0c-0.3,0-0.5,0.2-0.3,0.5l6.6,13.8
	c0.1,0.3,0.4,0.3,0.5,0l6.7-13.7c0.1-0.3,0-0.5-0.3-0.5l-1.5,0c-0.3,0-0.7,0.2-0.8,0.5L25.2,13.7z"/>
</svg>
